<?xml version="1.0" encoding="UTF-8" standalone="no"?>
<svg
   width="1920"
   height="1920"
   version="1.1"
   viewBox="0 0 508 508"
   id="svg4651"
   sodipodi:docname="developer.inkscape.svg"
   inkscape:version="1.1.1 (c3084ef, 2021-09-22)"
   xmlns:inkscape="http://www.inkscape.org/namespaces/inkscape"
   xmlns:sodipodi="http://sodipodi.sourceforge.net/DTD/sodipodi-0.dtd"
   xmlns="http://www.w3.org/2000/svg"
   xmlns:svg="http://www.w3.org/2000/svg">
  <sodipodi:namedview
     id="namedview26"
     pagecolor="#ffffff"
     bordercolor="#666666"
     borderopacity="1.0"
     inkscape:pageshadow="2"
     inkscape:pageopacity="0.0"
     inkscape:pagecheckerboard="0"
     showgrid="false"
     inkscape:zoom="0.28177083"
     inkscape:cx="960"
     inkscape:cy="960"
     inkscape:window-width="1296"
     inkscape:window-height="763"
     inkscape:window-x="0"
     inkscape:window-y="25"
     inkscape:window-maximized="0"
     inkscape:current-layer="svg4651" />
  <defs
     id="defs4640">
    <filter
       id="filter4220"
       x="-0.023543962"
       y="-0.028105227"
       width="1.0470879"
       height="1.0562105"
       color-interpolation-filters="sRGB">
      <feGaussianBlur
         stdDeviation="1.1253223"
         id="feGaussianBlur4637" />
    </filter>
  </defs>
  <g
     aria-label="DEVELOPER"
     id="text4645"
     style="font-size:10.583px;line-height:1.25;fill:#ea3501;fill-opacity:0.73392;stroke-width:2.6458;stroke-opacity:0.5;filter:url(#filter4220)">
    <path
       d="m 311.33734,78.037663 q -0.37237,-0.132105 -0.5191,-0.393779 -0.14673,-0.261673 -0.0429,-0.554248 l 6.42597,-18.113084 q 0.1038,-0.292575 0.38264,-0.403271 0.27883,-0.110696 0.6512,0.02141 l 4.70781,1.670187 q 1.56926,0.556729 2.6212,1.558779 1.07854,1.011485 1.35318,2.516355 0.30124,1.514306 -0.43477,3.588932 l -2.85914,8.059125 q -0.73601,2.074627 -1.92425,3.060511 -1.16163,0.995321 -2.63648,1.100942 -1.44826,0.115058 -3.01753,-0.441672 z m 1.53312,-1.282765 3.75029,1.330488 q 1.78205,0.632218 3.1419,0.0067 1.35985,-0.625546 2.1053,-2.72677 l 2.85913,-8.059126 q 0.74545,-2.101224 0.0839,-3.443913 -0.66158,-1.342689 -2.44363,-1.974907 l -3.75028,-1.330488 z"
       style="font-size:28.222px;font-family:Dosis;font-variation-settings:'wght' 400"
       id="path900" />
    <path
       d="m 326.15368,83.580988 q -0.28322,-0.12711 -0.47137,-0.397152 -0.15084,-0.284234 -6.2e-4,-0.618956 l 7.84615,-17.482802 q 0.15023,-0.334722 0.45129,-0.38521 0.33837,-0.06468 0.62159,0.06243 l 9.16624,4.113743 q 0.33473,0.150221 0.37366,0.477033 0.0505,0.301063 -0.0766,0.58429 -0.13867,0.308974 -0.43446,0.485565 -0.25849,0.162398 -0.56746,0.02373 l -8.23932,-3.697747 -3.17775,7.080663 4.04242,1.814208 q 0.30897,0.138665 0.35946,0.439729 0.0762,0.312619 -0.0624,0.621593 -0.11556,0.257479 -0.37404,0.419877 -0.25849,0.162398 -0.59321,0.01218 l -4.04242,-1.814207 -3.1893,7.106411 8.23932,3.697747 q 0.30897,0.138666 0.35946,0.439729 0.0762,0.312619 -0.074,0.647341 -0.12711,0.283227 -0.39715,0.471373 -0.25849,0.162398 -0.59321,0.01218 z"
       style="font-size:28.222px;font-family:Dosis;font-variation-settings:'wght' 400"
       id="path902" />
    <path
       d="m 343.08877,92.011698 q -0.32167,-0.176457 -0.53715,-0.487801 -0.19073,-0.297771 -0.10208,-0.635413 l 4.00678,-19.626519 q 0.016,-0.0878 0.0703,-0.186778 0.10859,-0.197947 0.33849,-0.264966 0.24348,-0.09176 0.50689,-0.04383 0.27699,0.02319 0.49968,0.145351 0.22269,0.122163 0.3416,0.316152 0.11891,0.193989 0.071,0.457401 l -3.75666,17.703597 12.88699,-12.694937 q 0.17165,-0.195544 0.39915,-0.199502 0.2275,-0.004 0.45019,0.118204 0.22269,0.122162 0.39109,0.343298 0.16839,0.221137 0.23541,0.451039 0.0918,0.243476 -0.0304,0.466167 -0.0136,0.02474 -0.0655,0.06066 -0.0136,0.02474 -0.0655,0.06066 l -14.3248,13.966325 q -0.26185,0.242627 -0.64022,0.228204 -0.35362,-8.49e-4 -0.67528,-0.177305 z"
       style="font-size:28.222px;font-family:Dosis;font-variation-settings:'wght' 400"
       id="path904" />
    <path
       d="m 352.30158,97.164824 q -0.25933,-0.170647 -0.40201,-0.467236 -0.10359,-0.304651 0.0981,-0.611135 l 10.53361,-16.007918 q 0.20168,-0.306484 0.50694,-0.308318 0.34435,-0.0099 0.60368,0.160752 l 8.39296,5.522781 q 0.30649,0.201674 0.29281,0.530512 0.002,0.305262 -0.16882,0.564595 -0.18616,0.282909 -0.50632,0.410072 -0.28108,0.119101 -0.56399,-0.06706 l -7.54423,-4.964297 -4.26619,6.483324 3.70139,2.435609 q 0.28291,0.186161 0.28474,0.491423 0.0254,0.320775 -0.16075,0.603684 -0.15514,0.235757 -0.43621,0.354858 -0.28108,0.119101 -0.58756,-0.08257 l -3.70139,-2.435609 -4.28171,6.506901 7.54424,4.964298 q 0.2829,0.18616 0.28474,0.49142 0.0254,0.32077 -0.17627,0.62726 -0.17065,0.25933 -0.46723,0.40201 -0.28108,0.1191 -0.58756,-0.0826 z"
       style="font-size:28.222px;font-family:Dosis;font-variation-settings:'wght' 400"
       id="path906" />
    <path
       d="m 364.13245,105.25151 q -0.24617,-0.18913 -0.3668,-0.49535 -0.0811,-0.3114 0.14246,-0.60234 l 11.69204,-15.218054 q 0.22352,-0.290934 0.55048,-0.253269 0.32696,0.03767 0.6179,0.261189 0.26855,0.20633 0.38918,0.512548 0.14301,0.323413 -0.0805,0.614347 l -11.09024,14.434779 6.37815,4.90033 q 0.26856,0.20633 0.20851,0.5161 -0.0428,0.28739 -0.23198,0.53356 -0.20633,0.26855 -0.49017,0.40638 -0.26665,0.11544 -0.5352,-0.0909 z"
       style="font-size:28.222px;font-family:Dosis;font-variation-settings:'wght' 400"
       id="path908" />
    <path
       d="m 377.40828,116.3409 q -1.21805,-1.09349 -1.80917,-2.42061 -0.59113,-1.32712 -0.29305,-2.84205 0.29808,-1.51493 1.76863,-3.153 l 5.82565,-6.48927 q 1.47055,-1.638071 2.94468,-2.097222 1.47412,-0.459151 2.83608,-0.03292 1.38296,0.445083 2.62201,1.557422 1.23905,1.11234 1.83018,2.43946 0.59112,1.32712 0.29304,2.84205 -0.29807,1.51493 -1.76862,3.153 l -5.82565,6.48928 q -1.47055,1.63807 -2.94468,2.09722 -1.47413,0.45915 -2.85709,0.0141 -1.38295,-0.44509 -2.62201,-1.55743 z m 1.15005,-1.28105 q 1.40706,1.26316 2.88166,1.1837 1.4956,-0.0606 2.98501,-1.71968 l 5.82565,-6.48927 q 1.4894,-1.65907 1.38894,-3.15253 -0.0795,-1.4746 -1.48653,-2.73777 -1.40705,-1.26316 -2.88166,-1.1837 -1.4746,0.0795 -2.964,1.73853 l -5.82565,6.48928 q -1.48941,1.65907 -1.40994,3.13367 0.0795,1.4746 1.48652,2.73777 z"
       style="font-size:28.222px;font-family:Dosis;font-variation-settings:'wght' 400"
       id="path910" />
    <path
       d="m 385.44017,123.68625 q -0.25184,-0.2668 -0.32243,-0.58826 -0.0501,-0.34084 0.21672,-0.59268 L 399.2899,109.3319 q 0.20523,-0.19373 0.48449,-0.18568 0.29864,0.0286 0.57101,0.27599 l 3.56457,3.77618 q 1.12362,1.19032 1.60316,2.56171 0.47953,1.37139 0.038,2.83602 -0.42098,1.44526 -2.00123,2.93695 l -0.20523,0.19373 q -1.60077,1.51107 -3.10777,1.84695 -1.46711,0.33703 -2.84849,-0.22187 -1.34149,-0.55774 -2.46511,-1.74805 l -2.78966,-2.95527 -5.52061,5.21125 q -0.26679,0.25184 -0.62355,0.1617 -0.31687,-0.089 -0.54934,-0.33526 z m 7.88381,-6.16131 2.78967,2.95527 q 1.29797,1.37502 2.77409,1.41757 1.51603,0.0437 3.1168,-1.46736 l 0.22575,-0.2131 q 1.62129,-1.53044 1.64447,-3.02709 0.0426,-1.47613 -1.25542,-2.85115 l -2.78966,-2.95527 z"
       style="font-size:28.222px;font-family:Dosis;font-variation-settings:'wght' 400"
       id="path912" />
    <path
       d="m 395.41658,134.61555 q -0.19463,-0.24185 -0.23965,-0.56788 -0.005,-0.32174 0.28048,-0.55176 l 14.92877,-12.01426 q 0.28582,-0.23002 0.57699,-0.13831 0.33084,0.096 0.52548,0.33786 l 6.29908,7.82716 q 0.23002,0.28582 0.11632,0.59468 -0.0917,0.29116 -0.33356,0.4858 -0.26384,0.21233 -0.60756,0.23536 -0.30405,0.0273 -0.51637,-0.23651 l -5.6621,-7.03565 -6.04626,4.86587 2.77797,3.45186 q 0.21232,0.26384 0.12061,0.55501 -0.074,0.31315 -0.33786,0.52547 -0.21986,0.17695 -0.5239,0.20427 -0.30404,0.0273 -0.53407,-0.25849 l -2.77796,-3.45187 -6.06825,4.88356 5.6621,7.03565 q 0.21233,0.26384 0.12061,0.555 -0.074,0.31315 -0.35984,0.54318 -0.24185,0.19463 -0.56788,0.23965 -0.30404,0.0273 -0.53406,-0.25849 z"
       style="font-size:28.222px;font-family:Dosis;font-variation-settings:'wght' 400"
       id="path914" />
    <path
       d="m 409.77979,154.15727 q -0.17502,-0.2564 -0.0618,-0.64121 0.13652,-0.40071 0.32076,-0.7315 l 4.54249,-8.36292 -2.02069,-2.96028 -7.15595,4.88467 q -0.30302,0.20684 -0.6412,0.0618 -0.29897,-0.13763 -0.4899,-0.41734 -0.20684,-0.30302 -0.2261,-0.63158 0.004,-0.34447 0.30708,-0.55131 l 15.85031,-10.81946 q 0.23309,-0.15911 0.50763,-0.10732 0.27454,0.0518 0.47287,0.29228 l 2.81624,4.12574 q 0.93875,1.37525 1.29882,2.8038 0.36007,1.42855 -0.18081,2.78869 -0.52497,1.38345 -2.27316,2.57677 -1.44518,0.98648 -2.71168,1.13343 -1.25059,0.17025 -2.33619,-0.31884 -1.04638,-0.4817 -1.93293,-1.38002 l -4.44926,8.29928 q -0.0222,0.11766 -0.11543,0.1813 -0.054,0.071 -0.12395,0.11878 -0.18647,0.12729 -0.46841,0.11472 -0.26603,0.0107 -0.52578,-0.11949 -0.25974,-0.13023 -0.40294,-0.34001 z m 4.10937,-13.60283 2.16389,3.17006 q 1.06604,1.56172 2.46428,2.00825 1.43747,0.45393 3.18567,-0.7394 1.7715,-1.20923 1.84914,-2.69737 0.0935,-1.46483 -0.97249,-3.02655 l -2.16389,-3.17006 z"
       style="font-size:28.222px;font-family:Dosis;font-variation-settings:'wght' 400"
       id="path916" />
  </g>
  <g
     aria-label="DEVELOPER"
     id="text4649"
     style="font-size:10.583px;line-height:1.25;fill:#ea3501;stroke-width:2.6458;stroke-opacity:0.5">
    <path
       d="m 311.33734,78.037663 q -0.37237,-0.132105 -0.5191,-0.393779 -0.14673,-0.261673 -0.0429,-0.554248 l 6.42597,-18.113084 q 0.1038,-0.292575 0.38264,-0.403271 0.27883,-0.110696 0.6512,0.02141 l 4.70781,1.670187 q 1.56926,0.556729 2.6212,1.558779 1.07854,1.011485 1.35318,2.516355 0.30124,1.514306 -0.43477,3.588932 l -2.85914,8.059125 q -0.73601,2.074627 -1.92425,3.060511 -1.16163,0.995321 -2.63648,1.100942 -1.44826,0.115058 -3.01753,-0.441672 z m 1.53312,-1.282765 3.75029,1.330488 q 1.78205,0.632218 3.1419,0.0067 1.35985,-0.625546 2.1053,-2.72677 l 2.85913,-8.059126 q 0.74545,-2.101224 0.0839,-3.443913 -0.66158,-1.342689 -2.44363,-1.974907 l -3.75028,-1.330488 z"
       style="font-size:28.222px;font-family:Dosis;font-variation-settings:'wght' 400"
       id="path863" />
    <path
       d="m 326.15368,83.580988 q -0.28322,-0.12711 -0.47137,-0.397152 -0.15084,-0.284234 -6.2e-4,-0.618956 l 7.84615,-17.482802 q 0.15023,-0.334722 0.45129,-0.38521 0.33837,-0.06468 0.62159,0.06243 l 9.16624,4.113743 q 0.33473,0.150221 0.37366,0.477033 0.0505,0.301063 -0.0766,0.58429 -0.13867,0.308974 -0.43446,0.485565 -0.25849,0.162398 -0.56746,0.02373 l -8.23932,-3.697747 -3.17775,7.080663 4.04242,1.814208 q 0.30897,0.138665 0.35946,0.439729 0.0762,0.312619 -0.0624,0.621593 -0.11556,0.257479 -0.37404,0.419877 -0.25849,0.162398 -0.59321,0.01218 l -4.04242,-1.814207 -3.1893,7.106411 8.23932,3.697747 q 0.30897,0.138666 0.35946,0.439729 0.0762,0.312619 -0.074,0.647341 -0.12711,0.283227 -0.39715,0.471373 -0.25849,0.162398 -0.59321,0.01218 z"
       style="font-size:28.222px;font-family:Dosis;font-variation-settings:'wght' 400"
       id="path865" />
    <path
       d="m 343.08877,92.011698 q -0.32167,-0.176457 -0.53715,-0.487801 -0.19073,-0.297771 -0.10208,-0.635413 l 4.00678,-19.626519 q 0.016,-0.0878 0.0703,-0.186778 0.10859,-0.197947 0.33849,-0.264966 0.24348,-0.09176 0.50689,-0.04383 0.27699,0.02319 0.49968,0.145351 0.22269,0.122163 0.3416,0.316152 0.11891,0.193989 0.071,0.457401 l -3.75666,17.703597 12.88699,-12.694937 q 0.17165,-0.195544 0.39915,-0.199502 0.2275,-0.004 0.45019,0.118204 0.22269,0.122162 0.39109,0.343298 0.16839,0.221137 0.23541,0.451039 0.0918,0.243476 -0.0304,0.466167 -0.0136,0.02474 -0.0655,0.06066 -0.0136,0.02474 -0.0655,0.06066 l -14.3248,13.966325 q -0.26185,0.242627 -0.64022,0.228204 -0.35362,-8.49e-4 -0.67528,-0.177305 z"
       style="font-size:28.222px;font-family:Dosis;font-variation-settings:'wght' 400"
       id="path867" />
    <path
       d="m 352.30158,97.164824 q -0.25933,-0.170647 -0.40201,-0.467236 -0.10359,-0.304651 0.0981,-0.611135 l 10.53361,-16.007918 q 0.20168,-0.306484 0.50694,-0.308318 0.34435,-0.0099 0.60368,0.160752 l 8.39296,5.522781 q 0.30649,0.201674 0.29281,0.530512 0.002,0.305262 -0.16882,0.564595 -0.18616,0.282909 -0.50632,0.410072 -0.28108,0.119101 -0.56399,-0.06706 l -7.54423,-4.964297 -4.26619,6.483324 3.70139,2.435609 q 0.28291,0.186161 0.28474,0.491423 0.0254,0.320775 -0.16075,0.603684 -0.15514,0.235757 -0.43621,0.354858 -0.28108,0.119101 -0.58756,-0.08257 l -3.70139,-2.435609 -4.28171,6.506901 7.54424,4.964298 q 0.2829,0.18616 0.28474,0.49142 0.0254,0.32077 -0.17627,0.62726 -0.17065,0.25933 -0.46723,0.40201 -0.28108,0.1191 -0.58756,-0.0826 z"
       style="font-size:28.222px;font-family:Dosis;font-variation-settings:'wght' 400"
       id="path869" />
    <path
       d="m 364.13245,105.25151 q -0.24617,-0.18913 -0.3668,-0.49535 -0.0811,-0.3114 0.14246,-0.60234 l 11.69204,-15.218054 q 0.22352,-0.290934 0.55048,-0.253269 0.32696,0.03767 0.6179,0.261189 0.26855,0.20633 0.38918,0.512548 0.14301,0.323413 -0.0805,0.614347 l -11.09024,14.434779 6.37815,4.90033 q 0.26856,0.20633 0.20851,0.5161 -0.0428,0.28739 -0.23198,0.53356 -0.20633,0.26855 -0.49017,0.40638 -0.26665,0.11544 -0.5352,-0.0909 z"
       style="font-size:28.222px;font-family:Dosis;font-variation-settings:'wght' 400"
       id="path871" />
    <path
       d="m 377.40828,116.3409 q -1.21805,-1.09349 -1.80917,-2.42061 -0.59113,-1.32712 -0.29305,-2.84205 0.29808,-1.51493 1.76863,-3.153 l 5.82565,-6.48927 q 1.47055,-1.638071 2.94468,-2.097222 1.47412,-0.459151 2.83608,-0.03292 1.38296,0.445083 2.62201,1.557422 1.23905,1.11234 1.83018,2.43946 0.59112,1.32712 0.29304,2.84205 -0.29807,1.51493 -1.76862,3.153 l -5.82565,6.48928 q -1.47055,1.63807 -2.94468,2.09722 -1.47413,0.45915 -2.85709,0.0141 -1.38295,-0.44509 -2.62201,-1.55743 z m 1.15005,-1.28105 q 1.40706,1.26316 2.88166,1.1837 1.4956,-0.0606 2.98501,-1.71968 l 5.82565,-6.48927 q 1.4894,-1.65907 1.38894,-3.15253 -0.0795,-1.4746 -1.48653,-2.73777 -1.40705,-1.26316 -2.88166,-1.1837 -1.4746,0.0795 -2.964,1.73853 l -5.82565,6.48928 q -1.48941,1.65907 -1.40994,3.13367 0.0795,1.4746 1.48652,2.73777 z"
       style="font-size:28.222px;font-family:Dosis;font-variation-settings:'wght' 400"
       id="path873" />
    <path
       d="m 385.44017,123.68625 q -0.25184,-0.2668 -0.32243,-0.58826 -0.0501,-0.34084 0.21672,-0.59268 L 399.2899,109.3319 q 0.20523,-0.19373 0.48449,-0.18568 0.29864,0.0286 0.57101,0.27599 l 3.56457,3.77618 q 1.12362,1.19032 1.60316,2.56171 0.47953,1.37139 0.038,2.83602 -0.42098,1.44526 -2.00123,2.93695 l -0.20523,0.19373 q -1.60077,1.51107 -3.10777,1.84695 -1.46711,0.33703 -2.84849,-0.22187 -1.34149,-0.55774 -2.46511,-1.74805 l -2.78966,-2.95527 -5.52061,5.21125 q -0.26679,0.25184 -0.62355,0.1617 -0.31687,-0.089 -0.54934,-0.33526 z m 7.88381,-6.16131 2.78967,2.95527 q 1.29797,1.37502 2.77409,1.41757 1.51603,0.0437 3.1168,-1.46736 l 0.22575,-0.2131 q 1.62129,-1.53044 1.64447,-3.02709 0.0426,-1.47613 -1.25542,-2.85115 l -2.78966,-2.95527 z"
       style="font-size:28.222px;font-family:Dosis;font-variation-settings:'wght' 400"
       id="path875" />
    <path
       d="m 395.41658,134.61555 q -0.19463,-0.24185 -0.23965,-0.56788 -0.005,-0.32174 0.28048,-0.55176 l 14.92877,-12.01426 q 0.28582,-0.23002 0.57699,-0.13831 0.33084,0.096 0.52548,0.33786 l 6.29908,7.82716 q 0.23002,0.28582 0.11632,0.59468 -0.0917,0.29116 -0.33356,0.4858 -0.26384,0.21233 -0.60756,0.23536 -0.30405,0.0273 -0.51637,-0.23651 l -5.6621,-7.03565 -6.04626,4.86587 2.77797,3.45186 q 0.21232,0.26384 0.12061,0.55501 -0.074,0.31315 -0.33786,0.52547 -0.21986,0.17695 -0.5239,0.20427 -0.30404,0.0273 -0.53407,-0.25849 l -2.77796,-3.45187 -6.06825,4.88356 5.6621,7.03565 q 0.21233,0.26384 0.12061,0.555 -0.074,0.31315 -0.35984,0.54318 -0.24185,0.19463 -0.56788,0.23965 -0.30404,0.0273 -0.53406,-0.25849 z"
       style="font-size:28.222px;font-family:Dosis;font-variation-settings:'wght' 400"
       id="path877" />
    <path
       d="m 409.77979,154.15727 q -0.17502,-0.2564 -0.0618,-0.64121 0.13652,-0.40071 0.32076,-0.7315 l 4.54249,-8.36292 -2.02069,-2.96028 -7.15595,4.88467 q -0.30302,0.20684 -0.6412,0.0618 -0.29897,-0.13763 -0.4899,-0.41734 -0.20684,-0.30302 -0.2261,-0.63158 0.004,-0.34447 0.30708,-0.55131 l 15.85031,-10.81946 q 0.23309,-0.15911 0.50763,-0.10732 0.27454,0.0518 0.47287,0.29228 l 2.81624,4.12574 q 0.93875,1.37525 1.29882,2.8038 0.36007,1.42855 -0.18081,2.78869 -0.52497,1.38345 -2.27316,2.57677 -1.44518,0.98648 -2.71168,1.13343 -1.25059,0.17025 -2.33619,-0.31884 -1.04638,-0.4817 -1.93293,-1.38002 l -4.44926,8.29928 q -0.0222,0.11766 -0.11543,0.1813 -0.054,0.071 -0.12395,0.11878 -0.18647,0.12729 -0.46841,0.11472 -0.26603,0.0107 -0.52578,-0.11949 -0.25974,-0.13023 -0.40294,-0.34001 z m 4.10937,-13.60283 2.16389,3.17006 q 1.06604,1.56172 2.46428,2.00825 1.43747,0.45393 3.18567,-0.7394 1.7715,-1.20923 1.84914,-2.69737 0.0935,-1.46483 -0.97249,-3.02655 l -2.16389,-3.17006 z"
       style="font-size:28.222px;font-family:Dosis;font-variation-settings:'wght' 400"
       id="path879" />
  </g>
</svg>
