<?xml version="1.0" encoding="UTF-8" standalone="no"?>
<!-- Created with Inkscape (http://www.inkscape.org/) -->

<svg
   width="1920"
   height="1920"
   viewBox="0 0 508 508"
   version="1.1"
   id="svg5"
   xmlns="http://www.w3.org/2000/svg"
   xmlns:svg="http://www.w3.org/2000/svg">
  <defs
     id="defs2" />
  <g
     id="layer1">
    <g
       aria-label="DAVID BYRON"
       id="text6029"
       style="font-size:50.8px;line-height:1.25;font-family:'Archivo Black';-inkscape-font-specification:'Archivo Black, Normal';white-space:pre;stroke-width:0.264583">
      <path
         d="m 189.87688,26.626472 q 17.64105,-5.010505 22.4156,11.799797 4.77455,16.810302 -12.86649,21.820807 l -14.56241,4.136095 -9.54911,-33.620603 z m 3.49622,26.626246 3.5673,-1.013205 q 6.79253,-1.929253 4.72449,-9.210459 l -0.83277,-2.932029 q -2.06805,-7.281207 -8.86059,-5.351954 l -3.5673,1.013205 z"
         id="path17901" />
      <path
         d="m 244.30186,52.705795 -1.92173,-4.770591 -12.19054,1.129993 -1.0121,5.04254 -11.43179,1.059662 9.4705,-35.97809 12.99987,-1.205014 15.92224,33.624328 z m -12.50751,-11.646087 7.53689,-0.698626 -4.79074,-12.055281 -0.20233,0.01876 z"
         id="path17903" />
      <path
         d="m 267.10463,52.995429 -8.91509,-35.99573 11.93124,1.173346 4.68972,23.941923 0.20222,0.01989 9.31433,-22.564734 11.42568,1.123627 L 280.047,54.26821 Z"
         id="path17905" />
      <path
         d="m 297.27657,57.326972 8.48688,-33.904326 10.89077,2.726163 -8.48687,33.904326 z"
         id="path17907" />
      <path
         d="m 343.37592,35.329028 q 16.94974,7.001275 10.27817,23.152829 -6.67157,16.151554 -23.62132,9.150279 l -13.99175,-5.779445 13.34315,-32.303108 z m -13.75844,23.06265 3.42751,1.41577 q 6.52636,2.695782 9.41608,-4.300095 l 1.16365,-2.817132 q 2.88972,-6.995876 -3.63663,-9.691658 l -3.42751,-1.41577 z"
         id="path17909" />
      <path
         d="m 406.76966,73.621724 q 2.06863,1.642809 3.08419,3.876475 1.08694,2.225478 0.84937,4.566762 -0.19779,2.372877 -1.71423,4.282381 -4.01225,5.05223 -9.62965,2.731878 l -0.12637,0.159125 q 4.26358,5.332056 -0.22256,10.981005 -1.70599,2.14819 -4.10697,2.96601 -2.32961,0.80963 -4.88618,0.27135 -2.55657,-0.53828 -4.74454,-2.27587 l -18.45854,-14.658914 21.73563,-27.36956 z m -17.89496,3.173979 6.04676,4.802058 q 0.87519,0.695035 1.90602,0.540609 1.1022,-0.162614 1.82883,-1.077585 l 0.31592,-0.397813 q 0.69503,-0.875189 0.5722,-1.945797 -0.0912,-1.110388 -0.92665,-1.773831 l -6.04676,-4.802057 z m -8.21405,10.343148 6.68327,5.307537 q 0.87519,0.695035 1.90601,0.54061 1.1022,-0.162614 1.82883,-1.077585 l 0.31593,-0.397813 q 0.72662,-0.914971 0.60379,-1.985579 -0.0515,-1.078796 -0.92665,-1.77383 l -6.68326,-5.307538 z"
         id="path17911" />
      <path
         d="m 411.33587,128.25039 -7.25441,-8.56823 10.35166,-8.76437 7.36096,-24.403775 8.33764,9.847651 -4.54544,12.634684 0.1313,0.15509 13.21135,-2.39934 7.91091,9.34364 -25.15231,3.39028 z"
         id="path17913" />
      <path
         d="m 459.56344,159.59189 q -2.7969,1.55559 -5.90059,1.30545 -3.10369,-0.25014 -5.77416,-2.54323 l -9.00796,13.90379 -6.12363,-11.01003 8.13079,-11.61393 -2.02475,-3.64042 -11.14322,6.19771 -5.45695,-9.81136 30.54396,-16.98814 10.39536,18.69042 q 1.82721,3.28525 1.82374,6.30988 0.0656,3.04433 -1.46777,5.40852 -1.46428,2.38389 -3.99482,3.79134 z m -5.95527,-9.76672 q 1.19868,-0.66668 1.55333,-1.91026 0.35466,-1.24357 -0.28733,-2.39785 l -3.58035,-6.43731 -5.6382,3.13589 3.58035,6.43732 q 0.64199,1.15427 1.88556,1.50893 1.28797,0.32997 2.48664,-0.33672 z"
         id="path17915" />
      <path
         d="m 479.70798,182.22658 q 2.74321,8.61625 -0.16683,14.71405 -2.91004,6.0978 -11.33267,8.77937 -8.42263,2.68156 -14.32246,-0.61138 -5.89983,-3.29295 -8.64304,-11.9092 -2.74321,-8.61625 0.11842,-14.69864 2.92546,-6.0494 11.39649,-8.74637 8.47104,-2.69698 14.30705,0.56297 5.89983,3.29295 8.64304,11.9092 z m -7.98697,2.54286 q -1.0942,-3.43682 -3.74588,-4.56515 -2.65167,-1.12833 -6.1853,-0.003 l -3.09798,0.98632 q -3.53363,1.12503 -5.04486,3.57873 -1.51124,2.45371 -0.41704,5.89053 1.0942,3.43682 3.74587,4.56515 2.66709,1.17674 6.20072,0.0517 l 3.09798,-0.98632 q 3.53363,-1.12502 5.02945,-3.62713 1.51124,-2.45371 0.41704,-5.89053 z"
         id="path17917" />
      <path
         d="m 455.11883,242.01219 15.45517,-16.26534 -16.88638,1.65407 -1.00532,-10.26328 34.78392,-3.40719 0.9558,9.7577 -15.70796,16.29011 17.13917,-1.67883 1.00532,10.26328 -34.78392,3.40718 z"
         id="path17919" />
    </g>
  </g>
</svg>
