<?xml version="1.0" encoding="UTF-8" standalone="no"?>
<svg
   width="1920"
   height="1920"
   version="1.1"
   viewBox="0 0 508 508"
   id="svg16"
   sodipodi:docname="visual_artist2.svg"
   inkscape:version="1.1.1 (c3084ef, 2021-09-22)"
   xmlns:inkscape="http://www.inkscape.org/namespaces/inkscape"
   xmlns:sodipodi="http://sodipodi.sourceforge.net/DTD/sodipodi-0.dtd"
   xmlns="http://www.w3.org/2000/svg"
   xmlns:svg="http://www.w3.org/2000/svg">
  <sodipodi:namedview
     id="namedview18"
     pagecolor="#ffffff"
     bordercolor="#666666"
     borderopacity="1.0"
     inkscape:pageshadow="2"
     inkscape:pageopacity="0.0"
     inkscape:pagecheckerboard="0"
     showgrid="false"
     inkscape:zoom="0.28177083"
     inkscape:cx="960.00001"
     inkscape:cy="960.00001"
     inkscape:window-width="1296"
     inkscape:window-height="763"
     inkscape:window-x="0"
     inkscape:window-y="25"
     inkscape:window-maximized="0"
     inkscape:current-layer="svg16" />
  <defs
     id="defs5">
    <filter
       id="filter4220"
       x="-0.021078897"
       y="-0.022779344"
       width="1.0421578"
       height="1.0455587"
       color-interpolation-filters="sRGB">
      <feGaussianBlur
         stdDeviation="1.1253223"
         id="feGaussianBlur2" />
    </filter>
  </defs>
  <g
     aria-label="VISUAL ARTIST"
     id="text10"
     style="font-size:10.583px;line-height:1.25;fill:#ea3501;fill-opacity:0.73392;stroke-width:2.6458;stroke-opacity:0.5;filter:url(#filter4220)">
    <path
       d="m 315.61637,79.735706 q -0.34599,-0.122057 -0.60902,-0.394412 -0.23643,-0.262966 -0.2036,-0.610506 l 0.77674,-20.016274 q 0.002,-0.08923 0.0391,-0.19569 0.0751,-0.212915 0.29114,-0.316267 0.22541,-0.129967 0.4931,-0.125309 0.27709,-0.02196 0.51662,0.06255 0.23953,0.0845 0.38827,0.256682 0.14875,0.172181 0.14409,0.439878 l -0.8412,18.078225 10.66192,-14.613671 q 0.13773,-0.220751 0.36159,-0.261486 0.22386,-0.04073 0.46339,0.04377 0.23953,0.0845 0.4415,0.275461 0.20197,0.190959 0.30532,0.406979 0.12997,0.22541 0.0455,0.46494 -0.009,0.02661 -0.0548,0.07045 -0.009,0.02661 -0.0548,0.07045 l -11.87495,16.101046 q -0.21913,0.281817 -0.59484,0.328835 -0.34909,0.05641 -0.69508,-0.06565 z"
       style="font-size:28.222px;font-family:Dosis;font-variation-settings:'wght' 400"
       id="path1365" />
    <path
       d="m 325.60295,83.400698 q -0.33845,-0.141611 -0.53344,-0.406752 -0.1841,-0.291176 -0.0425,-0.629631 l 7.40732,-17.703802 q 0.14161,-0.338455 0.46731,-0.385734 0.32571,-0.04728 0.66417,0.09433 0.31242,0.130717 0.50741,0.395858 0.22103,0.276035 0.0794,0.61449 l -7.40732,17.703801 q -0.14161,0.338456 -0.50425,0.400876 -0.32571,0.04728 -0.63813,-0.08344 z"
       style="font-size:28.222px;font-family:Dosis;font-variation-settings:'wght' 400"
       id="path1367" />
    <path
       d="m 334.54251,87.640532 q -1.62592,-0.786627 -2.56102,-1.834708 -0.9228,-1.073487 -1.25065,-2.015887 -0.29015,-0.955514 -0.0689,-1.412803 0.0983,-0.20324 0.31057,-0.38272 0.23765,-0.167189 0.47694,-0.208177 0.25158,-0.06639 0.42941,0.01964 0.25405,0.12291 0.34832,0.576085 0.13196,0.440061 0.3549,1.080893 0.26063,0.627718 0.83759,1.314422 0.58925,0.6613 1.78328,1.238979 1.19403,0.577678 2.21676,0.602208 1.03502,-8.75e-4 1.86104,-0.541784 0.83832,-0.566315 1.4037,-1.734943 0.58997,-1.219438 0.48912,-2.17742 -0.10084,-0.957983 -0.62946,-1.809408 -0.50322,-0.839134 -1.23261,-1.599585 -0.72939,-0.760451 -1.47189,-1.558597 -0.7171,-0.785856 -1.23343,-1.662686 -0.50403,-0.902235 -0.55572,-1.961838 -0.0394,-1.085007 0.59974,-2.406064 0.66372,-1.371868 1.602,-2.01522 0.95058,-0.668758 1.98395,-0.795835 1.05878,-0.114786 2.09709,0.136743 1.05061,0.226124 1.93978,0.65631 0.71134,0.344149 1.38663,0.827614 0.71298,0.470351 1.24978,0.980867 0.53679,0.510515 0.77037,0.99974 0.27128,0.476112 0.0992,0.831781 -0.0738,0.15243 -0.28599,0.33191 -0.17454,0.166367 -0.41301,0.270455 -0.23846,0.104088 -0.49251,-0.01882 -0.22865,-0.110619 -0.52451,-0.53592 -0.28357,-0.450707 -0.88429,-1.0235 -0.56302,-0.585908 -1.68084,-1.126714 -0.91458,-0.442477 -1.90126,-0.606323 -0.96127,-0.151554 -1.81434,0.250863 -0.84078,0.377012 -1.38159,1.49483 -0.49164,1.016198 -0.34162,1.87256 0.1877,0.843249 0.74008,1.580763 0.57779,0.749806 1.30718,1.510256 0.74168,0.735046 1.43419,1.571712 0.73022,0.823552 1.17197,1.789711 0.47946,0.953045 0.46969,2.139672 -0.01,1.186626 -0.74723,2.710924 -0.87267,1.803751 -2.12399,2.640521 -1.23903,0.811365 -2.72887,0.780304 -1.46444,-0.01877 -3.03954,-0.780814 z"
       style="font-size:28.222px;font-family:Dosis;font-variation-settings:'wght' 400"
       id="path1369" />
    <path
       d="m 347.83587,94.708666 q -1.43558,-0.843591 -2.27892,-2.026576 -0.84335,-1.182984 -0.85263,-2.726934 -0.009,-1.543951 1.10598,-3.441843 l 7.12048,-12.117312 q 0.18588,-0.316315 0.51499,-0.319325 0.32911,-0.003 0.64542,0.182866 0.31632,0.185876 0.47385,0.474849 0.15753,0.288973 -0.0283,0.605289 l -7.12048,12.117312 q -1.12956,1.922224 -0.73397,3.365836 0.39558,1.443613 2.02582,2.401589 1.65457,0.972275 3.10822,0.615323 1.45364,-0.356952 2.5832,-2.279176 l 7.12048,-12.117312 q 0.18588,-0.316315 0.51499,-0.319325 0.32911,-0.003 0.64542,0.182866 0.31632,0.185876 0.47385,0.474849 0.15753,0.288973 -0.0283,0.605289 l -7.12048,12.117312 q -1.11526,1.897892 -2.46857,2.641145 -1.32897,0.757551 -2.79717,0.582211 -1.46819,-0.175341 -2.90378,-1.018933 z"
       style="font-size:28.222px;font-family:Dosis;font-variation-settings:'wght' 400"
       id="path1371" />
    <path
       d="m 356.01348,99.49236 q -0.18435,-0.130352 -0.34286,-0.346127 -0.14221,-0.238818 -0.1827,-0.474841 -0.0242,-0.259066 0.10615,-0.443412 0.0652,-0.09217 0.1371,-0.145008 L 371.5945,85.865138 q 0.30399,-0.234385 0.63894,-0.170367 0.35124,0.04097 0.6508,0.252796 0.3226,0.228115 0.47831,0.545608 0.17876,0.333787 0.0524,0.659187 l -6.25433,19.012418 q -0.0258,0.0854 -0.0747,0.15455 -0.13035,0.18435 -0.38267,0.24789 -0.23602,0.0405 -0.50858,-0.014 -0.27257,-0.0545 -0.503,-0.21741 -0.18435,-0.13036 -0.28047,-0.33659 -0.0961,-0.20623 -0.0186,-0.4625 l 1.44928,-4.29817 -6.35991,-4.497133 -3.56926,2.799126 q -0.21578,0.158507 -0.44225,0.136622 -0.22648,-0.02188 -0.45691,-0.184825 z m 5.76586,-3.803681 5.59949,3.959434 3.77825,-11.25797 z"
       style="font-size:28.222px;font-family:Dosis;font-variation-settings:'wght' 400"
       id="path1373" />
    <path
       d="m 369.33735,109.24478 q -0.23897,-0.19816 -0.34813,-0.50866 -0.0694,-0.3142 0.16477,-0.59662 l 12.24993,-14.772684 q 0.23419,-0.282419 0.55952,-0.23262 0.32534,0.0498 0.60775,0.283989 0.2607,0.216175 0.36986,0.526668 0.13088,0.328508 -0.10331,0.610927 l -11.61942,14.01232 6.19149,5.13417 q 0.2607,0.21617 0.18917,0.52349 -0.0535,0.28559 -0.25167,0.52456 -0.21617,0.2607 -0.50494,0.38787 -0.27075,0.10545 -0.53145,-0.11073 z"
       style="font-size:28.222px;font-family:Dosis;font-variation-settings:'wght' 400"
       id="path1375" />
    <path
       d="m 382.40667,120.6299 q -0.15739,-0.16187 -0.27375,-0.403 -0.0961,-0.26081 -0.0928,-0.50026 0.0236,-0.25912 0.18547,-0.41651 0.0809,-0.0787 0.16131,-0.11748 l 17.83063,-9.10986 q 0.34174,-0.17483 0.65932,-0.0506 0.33782,0.10453 0.59357,0.36758 0.27544,0.28328 0.37044,0.6239 0.11468,0.36085 -0.0691,0.65764 l -9.62666,17.54754 q -0.041,0.0793 -0.10173,0.13827 -0.16187,0.15739 -0.42155,0.17371 -0.23945,-0.003 -0.49745,-0.10678 -0.258,-0.10341 -0.45474,-0.30576 -0.15739,-0.16187 -0.21417,-0.3822 -0.0568,-0.22034 0.0663,-0.45811 l 2.21107,-3.96053 -5.42996,-5.58465 -4.02106,2.09899 q -0.24113,0.11636 -0.45979,0.0534 -0.21865,-0.063 -0.41539,-0.26529 z m 6.36437,-2.68478 4.78073,4.91692 5.77387,-10.37687 z"
       style="font-size:28.222px;font-family:Dosis;font-variation-settings:'wght' 400"
       id="path1377" />
    <path
       d="m 400.02224,140.33563 q -0.19782,-0.23925 -0.12042,-0.63282 0.0992,-0.41156 0.25225,-0.75786 l 3.75562,-8.7446 -2.28391,-2.76228 -6.67733,5.52094 q -0.28275,0.23379 -0.63282,0.12042 -0.31034,-0.1096 -0.52614,-0.37061 -0.23379,-0.28275 -0.28312,-0.60815 -0.0276,-0.34339 0.25517,-0.57718 l 14.79018,-12.22879 q 0.21751,-0.17984 0.49564,-0.15347 0.27814,0.0264 0.49771,0.24764 l 3.18308,3.84979 q 1.06103,1.28327 1.55072,2.67274 0.48968,1.38946 0.0759,2.79351 -0.39575,1.4258 -2.02702,2.77457 -1.34852,1.11497 -2.59618,1.37756 -1.22968,0.28433 -2.3556,-0.10304 -1.08618,-0.3836 -2.05145,-1.19675 l -3.66862,8.67267 q -0.0113,0.1192 -0.0983,0.19113 -0.0473,0.0757 -0.11252,0.12965 -0.174,0.14387 -0.45591,0.15724 -0.26391,0.0351 -0.53452,-0.0707 -0.2706,-0.10583 -0.43245,-0.30159 z m 2.84331,-13.92262 2.44576,2.95803 q 1.20489,1.45727 2.63823,1.77356 1.47306,0.32006 3.10433,-1.02871 1.65303,-1.36675 1.59373,-2.85573 -0.0413,-1.46723 -1.24622,-2.9245 l -2.44575,-2.95804 z"
       style="font-size:28.222px;font-family:Dosis;font-variation-settings:'wght' 400"
       id="path1379" />
    <path
       d="m 405.01666,147.12249 q -0.21176,-0.29961 -0.23637,-0.62781 -0.002,-0.34449 0.29804,-0.55624 l 14.81898,-10.4739 -2.73657,-3.87183 q -0.19547,-0.27656 -0.10208,-0.58448 0.11645,-0.32422 0.39301,-0.51969 0.27656,-0.19547 0.598,-0.18075 0.34449,-0.002 0.53996,0.275 l 6.53193,9.24169 q 0.21176,0.29961 0.079,0.60078 -0.10968,0.28488 -0.36319,0.46406 -0.27656,0.19547 -0.60476,0.22008 -0.3282,0.0246 -0.53996,-0.27499 l -2.72028,-3.84879 -14.81898,10.47389 q -0.2996,0.21176 -0.64011,0.0723 -0.30117,-0.13273 -0.49664,-0.40929 z"
       style="font-size:28.222px;font-family:Dosis;font-variation-settings:'wght' 400"
       id="path1381" />
    <path
       d="m 410.44822,155.25502 q -0.19566,-0.31036 -0.20292,-0.6394 0.0166,-0.34409 0.32697,-0.53975 l 16.23424,-10.23438 q 0.31036,-0.19566 0.6041,-0.0472 0.29375,0.14844 0.48941,0.4588 0.18061,0.28649 0.18787,0.61553 0.0223,0.35291 -0.28805,0.54857 l -16.23423,10.23439 q -0.31036,0.19565 -0.64303,0.0384 -0.29375,-0.14843 -0.47436,-0.43492 z"
       style="font-size:28.222px;font-family:Dosis;font-variation-settings:'wght' 400"
       id="path1383" />
    <path
       d="m 415.32998,163.86113 q -0.87974,-1.57747 -1.04375,-2.97246 -0.13935,-1.40873 0.1332,-2.36859 0.31095,-0.94895 0.75461,-1.19637 0.19719,-0.10997 0.474,-0.13509 0.29057,-4.8e-4 0.51003,0.10333 0.24411,0.0901 0.34033,0.2626 0.13746,0.24648 -0.0455,0.67166 -0.14457,0.43608 -0.32991,1.08878 -0.14694,0.6636 -0.0687,1.55709 0.10286,0.87975 0.74892,2.03821 0.64606,1.15846 1.4694,1.76565 0.84799,0.59346 1.83486,0.62474 1.01152,0.0175 2.14533,-0.61478 1.18311,-0.65981 1.65048,-1.50211 0.46736,-0.8423 0.5233,-1.84291 0.0697,-0.97597 -0.091,-2.01735 -0.16069,-1.04139 -0.31047,-2.12116 -0.13604,-1.05513 -0.0555,-2.06949 0.10523,-1.02811 0.67119,-1.92539 0.59061,-0.91104 1.87231,-1.62583 1.331,-0.74228 2.4686,-0.73043 1.16225,-0.002 2.08134,0.48727 0.93283,0.51382 1.63862,1.31583 0.73044,0.78827 1.21155,1.65095 0.38489,0.69015 0.66028,1.47367 0.31379,0.79443 0.46025,1.5206 0.14647,0.72617 0.0569,1.26084 -0.0512,0.54558 -0.39626,0.73802 -0.14789,0.0825 -0.42471,0.1076 -0.23842,0.036 -0.49343,-0.0156 -0.25502,-0.0517 -0.39248,-0.29815 -0.12371,-0.22183 -0.12181,-0.73992 0.0265,-0.53183 -0.13652,-1.34569 -0.12466,-0.80295 -0.72948,-1.88747 -0.49486,-0.88733 -1.2087,-1.58791 -0.7001,-0.67592 -1.62962,-0.83614 -0.90487,-0.17396 -1.98939,0.43087 -0.98592,0.54984 -1.35469,1.33716 -0.33038,0.79821 -0.30147,1.7192 0.0427,0.94563 0.20335,1.98701 0.18533,1.02764 0.27207,2.11026 0.12514,1.09352 -0.0678,2.13822 -0.15453,1.0556 -0.84373,2.02161 -0.6892,0.96602 -2.16808,1.79078 -1.75002,0.97597 -3.25497,0.94279 -1.48031,-0.0469 -2.68237,-0.92763 -1.18832,-0.85605 -2.04058,-2.38423 z"
       style="font-size:28.222px;font-family:Dosis;font-variation-settings:'wght' 400"
       id="path1385" />
    <path
       d="m 421.77012,176.03237 q -0.15475,-0.33265 -0.12026,-0.65996 0.0601,-0.33922 0.39272,-0.49397 l 16.45341,-7.6544 -1.9999,-4.29887 q -0.14285,-0.30706 0.004,-0.59332 0.17256,-0.29816 0.47962,-0.44101 0.30706,-0.14285 0.62069,-0.0709 0.33921,0.0601 0.48206,0.36714 l 4.77358,10.26099 q 0.15476,0.33265 -0.0297,0.60523 -0.15887,0.26067 -0.44035,0.39161 -0.30706,0.14285 -0.63437,0.10836 -0.32731,-0.0345 -0.48206,-0.36714 l -1.988,-4.27328 -16.45341,7.6544 q -0.33265,0.15476 -0.64272,-0.0434 -0.27257,-0.18446 -0.41542,-0.49152 z"
       style="font-size:28.222px;font-family:Dosis;font-variation-settings:'wght' 400"
       id="path1387" />
  </g>
  <g
     aria-label="VISUAL ARTIST"
     id="text14"
     style="font-size:10.583px;line-height:1.25;fill:#ea3501;stroke-width:2.6458;stroke-opacity:0.5">
    <path
       d="m 315.61637,79.735706 q -0.34599,-0.122057 -0.60902,-0.394412 -0.23643,-0.262966 -0.2036,-0.610506 l 0.77674,-20.016274 q 0.002,-0.08923 0.0391,-0.19569 0.0751,-0.212915 0.29114,-0.316267 0.22541,-0.129967 0.4931,-0.125309 0.27709,-0.02196 0.51662,0.06255 0.23953,0.0845 0.38827,0.256682 0.14875,0.172181 0.14409,0.439878 l -0.8412,18.078225 10.66192,-14.613671 q 0.13773,-0.220751 0.36159,-0.261486 0.22386,-0.04073 0.46339,0.04377 0.23953,0.0845 0.4415,0.275461 0.20197,0.190959 0.30532,0.406979 0.12997,0.22541 0.0455,0.46494 -0.009,0.02661 -0.0548,0.07045 -0.009,0.02661 -0.0548,0.07045 l -11.87495,16.101046 q -0.21913,0.281817 -0.59484,0.328835 -0.34909,0.05641 -0.69508,-0.06565 z"
       style="font-size:28.222px;font-family:Dosis;font-variation-settings:'wght' 400"
       id="path1322" />
    <path
       d="m 325.60295,83.400698 q -0.33845,-0.141611 -0.53344,-0.406752 -0.1841,-0.291176 -0.0425,-0.629631 l 7.40732,-17.703802 q 0.14161,-0.338455 0.46731,-0.385734 0.32571,-0.04728 0.66417,0.09433 0.31242,0.130717 0.50741,0.395858 0.22103,0.276035 0.0794,0.61449 l -7.40732,17.703801 q -0.14161,0.338456 -0.50425,0.400876 -0.32571,0.04728 -0.63813,-0.08344 z"
       style="font-size:28.222px;font-family:Dosis;font-variation-settings:'wght' 400"
       id="path1324" />
    <path
       d="m 334.54251,87.640532 q -1.62592,-0.786627 -2.56102,-1.834708 -0.9228,-1.073487 -1.25065,-2.015887 -0.29015,-0.955514 -0.0689,-1.412803 0.0983,-0.20324 0.31057,-0.38272 0.23765,-0.167189 0.47694,-0.208177 0.25158,-0.06639 0.42941,0.01964 0.25405,0.12291 0.34832,0.576085 0.13196,0.440061 0.3549,1.080893 0.26063,0.627718 0.83759,1.314422 0.58925,0.6613 1.78328,1.238979 1.19403,0.577678 2.21676,0.602208 1.03502,-8.75e-4 1.86104,-0.541784 0.83832,-0.566315 1.4037,-1.734943 0.58997,-1.219438 0.48912,-2.17742 -0.10084,-0.957983 -0.62946,-1.809408 -0.50322,-0.839134 -1.23261,-1.599585 -0.72939,-0.760451 -1.47189,-1.558597 -0.7171,-0.785856 -1.23343,-1.662686 -0.50403,-0.902235 -0.55572,-1.961838 -0.0394,-1.085007 0.59974,-2.406064 0.66372,-1.371868 1.602,-2.01522 0.95058,-0.668758 1.98395,-0.795835 1.05878,-0.114786 2.09709,0.136743 1.05061,0.226124 1.93978,0.65631 0.71134,0.344149 1.38663,0.827614 0.71298,0.470351 1.24978,0.980867 0.53679,0.510515 0.77037,0.99974 0.27128,0.476112 0.0992,0.831781 -0.0738,0.15243 -0.28599,0.33191 -0.17454,0.166367 -0.41301,0.270455 -0.23846,0.104088 -0.49251,-0.01882 -0.22865,-0.110619 -0.52451,-0.53592 -0.28357,-0.450707 -0.88429,-1.0235 -0.56302,-0.585908 -1.68084,-1.126714 -0.91458,-0.442477 -1.90126,-0.606323 -0.96127,-0.151554 -1.81434,0.250863 -0.84078,0.377012 -1.38159,1.49483 -0.49164,1.016198 -0.34162,1.87256 0.1877,0.843249 0.74008,1.580763 0.57779,0.749806 1.30718,1.510256 0.74168,0.735046 1.43419,1.571712 0.73022,0.823552 1.17197,1.789711 0.47946,0.953045 0.46969,2.139672 -0.01,1.186626 -0.74723,2.710924 -0.87267,1.803751 -2.12399,2.640521 -1.23903,0.811365 -2.72887,0.780304 -1.46444,-0.01877 -3.03954,-0.780814 z"
       style="font-size:28.222px;font-family:Dosis;font-variation-settings:'wght' 400"
       id="path1326" />
    <path
       d="m 347.83587,94.708666 q -1.43558,-0.843591 -2.27892,-2.026576 -0.84335,-1.182984 -0.85263,-2.726934 -0.009,-1.543951 1.10598,-3.441843 l 7.12048,-12.117312 q 0.18588,-0.316315 0.51499,-0.319325 0.32911,-0.003 0.64542,0.182866 0.31632,0.185876 0.47385,0.474849 0.15753,0.288973 -0.0283,0.605289 l -7.12048,12.117312 q -1.12956,1.922224 -0.73397,3.365836 0.39558,1.443613 2.02582,2.401589 1.65457,0.972275 3.10822,0.615323 1.45364,-0.356952 2.5832,-2.279176 l 7.12048,-12.117312 q 0.18588,-0.316315 0.51499,-0.319325 0.32911,-0.003 0.64542,0.182866 0.31632,0.185876 0.47385,0.474849 0.15753,0.288973 -0.0283,0.605289 l -7.12048,12.117312 q -1.11526,1.897892 -2.46857,2.641145 -1.32897,0.757551 -2.79717,0.582211 -1.46819,-0.175341 -2.90378,-1.018933 z"
       style="font-size:28.222px;font-family:Dosis;font-variation-settings:'wght' 400"
       id="path1328" />
    <path
       d="m 356.01348,99.49236 q -0.18435,-0.130352 -0.34286,-0.346127 -0.14221,-0.238818 -0.1827,-0.474841 -0.0242,-0.259066 0.10615,-0.443412 0.0652,-0.09217 0.1371,-0.145008 L 371.5945,85.865138 q 0.30399,-0.234385 0.63894,-0.170367 0.35124,0.04097 0.6508,0.252796 0.3226,0.228115 0.47831,0.545608 0.17876,0.333787 0.0524,0.659187 l -6.25433,19.012418 q -0.0258,0.0854 -0.0747,0.15455 -0.13035,0.18435 -0.38267,0.24789 -0.23602,0.0405 -0.50858,-0.014 -0.27257,-0.0545 -0.503,-0.21741 -0.18435,-0.13036 -0.28047,-0.33659 -0.0961,-0.20623 -0.0186,-0.4625 l 1.44928,-4.29817 -6.35991,-4.497133 -3.56926,2.799126 q -0.21578,0.158507 -0.44225,0.136622 -0.22648,-0.02188 -0.45691,-0.184825 z m 5.76586,-3.803681 5.59949,3.959434 3.77825,-11.25797 z"
       style="font-size:28.222px;font-family:Dosis;font-variation-settings:'wght' 400"
       id="path1330" />
    <path
       d="m 369.33735,109.24478 q -0.23897,-0.19816 -0.34813,-0.50866 -0.0694,-0.3142 0.16477,-0.59662 l 12.24993,-14.772684 q 0.23419,-0.282419 0.55952,-0.23262 0.32534,0.0498 0.60775,0.283989 0.2607,0.216175 0.36986,0.526668 0.13088,0.328508 -0.10331,0.610927 l -11.61942,14.01232 6.19149,5.13417 q 0.2607,0.21617 0.18917,0.52349 -0.0535,0.28559 -0.25167,0.52456 -0.21617,0.2607 -0.50494,0.38787 -0.27075,0.10545 -0.53145,-0.11073 z"
       style="font-size:28.222px;font-family:Dosis;font-variation-settings:'wght' 400"
       id="path1332" />
    <path
       d="m 382.40667,120.6299 q -0.15739,-0.16187 -0.27375,-0.403 -0.0961,-0.26081 -0.0928,-0.50026 0.0236,-0.25912 0.18547,-0.41651 0.0809,-0.0787 0.16131,-0.11748 l 17.83063,-9.10986 q 0.34174,-0.17483 0.65932,-0.0506 0.33782,0.10453 0.59357,0.36758 0.27544,0.28328 0.37044,0.6239 0.11468,0.36085 -0.0691,0.65764 l -9.62666,17.54754 q -0.041,0.0793 -0.10173,0.13827 -0.16187,0.15739 -0.42155,0.17371 -0.23945,-0.003 -0.49745,-0.10678 -0.258,-0.10341 -0.45474,-0.30576 -0.15739,-0.16187 -0.21417,-0.3822 -0.0568,-0.22034 0.0663,-0.45811 l 2.21107,-3.96053 -5.42996,-5.58465 -4.02106,2.09899 q -0.24113,0.11636 -0.45979,0.0534 -0.21865,-0.063 -0.41539,-0.26529 z m 6.36437,-2.68478 4.78073,4.91692 5.77387,-10.37687 z"
       style="font-size:28.222px;font-family:Dosis;font-variation-settings:'wght' 400"
       id="path1334" />
    <path
       d="m 400.02224,140.33563 q -0.19782,-0.23925 -0.12042,-0.63282 0.0992,-0.41156 0.25225,-0.75786 l 3.75562,-8.7446 -2.28391,-2.76228 -6.67733,5.52094 q -0.28275,0.23379 -0.63282,0.12042 -0.31034,-0.1096 -0.52614,-0.37061 -0.23379,-0.28275 -0.28312,-0.60815 -0.0276,-0.34339 0.25517,-0.57718 l 14.79018,-12.22879 q 0.21751,-0.17984 0.49564,-0.15347 0.27814,0.0264 0.49771,0.24764 l 3.18308,3.84979 q 1.06103,1.28327 1.55072,2.67274 0.48968,1.38946 0.0759,2.79351 -0.39575,1.4258 -2.02702,2.77457 -1.34852,1.11497 -2.59618,1.37756 -1.22968,0.28433 -2.3556,-0.10304 -1.08618,-0.3836 -2.05145,-1.19675 l -3.66862,8.67267 q -0.0113,0.1192 -0.0983,0.19113 -0.0473,0.0757 -0.11252,0.12965 -0.174,0.14387 -0.45591,0.15724 -0.26391,0.0351 -0.53452,-0.0707 -0.2706,-0.10583 -0.43245,-0.30159 z m 2.84331,-13.92262 2.44576,2.95803 q 1.20489,1.45727 2.63823,1.77356 1.47306,0.32006 3.10433,-1.02871 1.65303,-1.36675 1.59373,-2.85573 -0.0413,-1.46723 -1.24622,-2.9245 l -2.44575,-2.95804 z"
       style="font-size:28.222px;font-family:Dosis;font-variation-settings:'wght' 400"
       id="path1336" />
    <path
       d="m 405.01666,147.12249 q -0.21176,-0.29961 -0.23637,-0.62781 -0.002,-0.34449 0.29804,-0.55624 l 14.81898,-10.4739 -2.73657,-3.87183 q -0.19547,-0.27656 -0.10208,-0.58448 0.11645,-0.32422 0.39301,-0.51969 0.27656,-0.19547 0.598,-0.18075 0.34449,-0.002 0.53996,0.275 l 6.53193,9.24169 q 0.21176,0.29961 0.079,0.60078 -0.10968,0.28488 -0.36319,0.46406 -0.27656,0.19547 -0.60476,0.22008 -0.3282,0.0246 -0.53996,-0.27499 l -2.72028,-3.84879 -14.81898,10.47389 q -0.2996,0.21176 -0.64011,0.0723 -0.30117,-0.13273 -0.49664,-0.40929 z"
       style="font-size:28.222px;font-family:Dosis;font-variation-settings:'wght' 400"
       id="path1338" />
    <path
       d="m 410.44822,155.25502 q -0.19566,-0.31036 -0.20292,-0.6394 0.0166,-0.34409 0.32697,-0.53975 l 16.23424,-10.23438 q 0.31036,-0.19566 0.6041,-0.0472 0.29375,0.14844 0.48941,0.4588 0.18061,0.28649 0.18787,0.61553 0.0223,0.35291 -0.28805,0.54857 l -16.23423,10.23439 q -0.31036,0.19565 -0.64303,0.0384 -0.29375,-0.14843 -0.47436,-0.43492 z"
       style="font-size:28.222px;font-family:Dosis;font-variation-settings:'wght' 400"
       id="path1340" />
    <path
       d="m 415.32998,163.86113 q -0.87974,-1.57747 -1.04375,-2.97246 -0.13935,-1.40873 0.1332,-2.36859 0.31095,-0.94895 0.75461,-1.19637 0.19719,-0.10997 0.474,-0.13509 0.29057,-4.8e-4 0.51003,0.10333 0.24411,0.0901 0.34033,0.2626 0.13746,0.24648 -0.0455,0.67166 -0.14457,0.43608 -0.32991,1.08878 -0.14694,0.6636 -0.0687,1.55709 0.10286,0.87975 0.74892,2.03821 0.64606,1.15846 1.4694,1.76565 0.84799,0.59346 1.83486,0.62474 1.01152,0.0175 2.14533,-0.61478 1.18311,-0.65981 1.65048,-1.50211 0.46736,-0.8423 0.5233,-1.84291 0.0697,-0.97597 -0.091,-2.01735 -0.16069,-1.04139 -0.31047,-2.12116 -0.13604,-1.05513 -0.0555,-2.06949 0.10523,-1.02811 0.67119,-1.92539 0.59061,-0.91104 1.87231,-1.62583 1.331,-0.74228 2.4686,-0.73043 1.16225,-0.002 2.08134,0.48727 0.93283,0.51382 1.63862,1.31583 0.73044,0.78827 1.21155,1.65095 0.38489,0.69015 0.66028,1.47367 0.31379,0.79443 0.46025,1.5206 0.14647,0.72617 0.0569,1.26084 -0.0512,0.54558 -0.39626,0.73802 -0.14789,0.0825 -0.42471,0.1076 -0.23842,0.036 -0.49343,-0.0156 -0.25502,-0.0517 -0.39248,-0.29815 -0.12371,-0.22183 -0.12181,-0.73992 0.0265,-0.53183 -0.13652,-1.34569 -0.12466,-0.80295 -0.72948,-1.88747 -0.49486,-0.88733 -1.2087,-1.58791 -0.7001,-0.67592 -1.62962,-0.83614 -0.90487,-0.17396 -1.98939,0.43087 -0.98592,0.54984 -1.35469,1.33716 -0.33038,0.79821 -0.30147,1.7192 0.0427,0.94563 0.20335,1.98701 0.18533,1.02764 0.27207,2.11026 0.12514,1.09352 -0.0678,2.13822 -0.15453,1.0556 -0.84373,2.02161 -0.6892,0.96602 -2.16808,1.79078 -1.75002,0.97597 -3.25497,0.94279 -1.48031,-0.0469 -2.68237,-0.92763 -1.18832,-0.85605 -2.04058,-2.38423 z"
       style="font-size:28.222px;font-family:Dosis;font-variation-settings:'wght' 400"
       id="path1342" />
    <path
       d="m 421.77012,176.03237 q -0.15475,-0.33265 -0.12026,-0.65996 0.0601,-0.33922 0.39272,-0.49397 l 16.45341,-7.6544 -1.9999,-4.29887 q -0.14285,-0.30706 0.004,-0.59332 0.17256,-0.29816 0.47962,-0.44101 0.30706,-0.14285 0.62069,-0.0709 0.33921,0.0601 0.48206,0.36714 l 4.77358,10.26099 q 0.15476,0.33265 -0.0297,0.60523 -0.15887,0.26067 -0.44035,0.39161 -0.30706,0.14285 -0.63437,0.10836 -0.32731,-0.0345 -0.48206,-0.36714 l -1.988,-4.27328 -16.45341,7.6544 q -0.33265,0.15476 -0.64272,-0.0434 -0.27257,-0.18446 -0.41542,-0.49152 z"
       style="font-size:28.222px;font-family:Dosis;font-variation-settings:'wght' 400"
       id="path1344" />
  </g>
</svg>
